<mxfile host="app.diagrams.net" agent="Mozilla/5.0 (X11; Linux x86_64) AppleWebKit/537.36 (KHTML, like Gecko) Chrome/135.0.0.0 Safari/537.36" version="26.2.12">
  <diagram name="Page-1" id="vTLdhLMDzEt4X6IVa9T1">
    <mxGraphModel dx="1010" dy="534" grid="0" gridSize="10" guides="1" tooltips="1" connect="1" arrows="1" fold="1" page="1" pageScale="1" pageWidth="1100" pageHeight="850" math="0" shadow="0">
      <root>
        <mxCell id="0" />
        <mxCell id="1" parent="0" />
        <mxCell id="_rXOLrQLvxj1EaKKoI4X-3" value="&lt;font&gt;USER&lt;/font&gt;" style="rounded=0;whiteSpace=wrap;html=1;fillColor=none;fontSize=11;" parent="1" vertex="1">
          <mxGeometry x="260" y="185" width="90" height="40" as="geometry" />
        </mxCell>
        <mxCell id="_rXOLrQLvxj1EaKKoI4X-31" value="" style="ellipse;whiteSpace=wrap;html=1;aspect=fixed;fillColor=light-dark(#FFFFFF,#FFFFFF);fontSize=11;" parent="1" vertex="1">
          <mxGeometry x="225" y="162.5" width="10" height="10" as="geometry" />
        </mxCell>
        <mxCell id="_rXOLrQLvxj1EaKKoI4X-32" value="id" style="text;html=1;align=center;verticalAlign=middle;resizable=0;points=[];autosize=1;strokeColor=none;fillColor=none;fontSize=11;" parent="1" vertex="1">
          <mxGeometry x="200" y="152.5" width="30" height="30" as="geometry" />
        </mxCell>
        <mxCell id="_rXOLrQLvxj1EaKKoI4X-33" value="email" style="text;html=1;align=center;verticalAlign=middle;resizable=0;points=[];autosize=1;strokeColor=none;fillColor=none;fontSize=11;" parent="1" vertex="1">
          <mxGeometry x="180" y="172" width="50" height="30" as="geometry" />
        </mxCell>
        <mxCell id="_rXOLrQLvxj1EaKKoI4X-37" value="" style="endArrow=none;html=1;rounded=0;entryX=1;entryY=0.5;entryDx=0;entryDy=0;fontSize=11;" parent="1" target="_rXOLrQLvxj1EaKKoI4X-31" edge="1">
          <mxGeometry width="50" height="50" relative="1" as="geometry">
            <mxPoint x="260" y="185" as="sourcePoint" />
            <mxPoint x="215.00000000000455" y="190" as="targetPoint" />
            <Array as="points">
              <mxPoint x="250" y="170" />
            </Array>
          </mxGeometry>
        </mxCell>
        <mxCell id="_rXOLrQLvxj1EaKKoI4X-40" value="" style="endArrow=none;html=1;rounded=0;entryX=1;entryY=0.5;entryDx=0;entryDy=0;exitX=0;exitY=0.25;exitDx=0;exitDy=0;fontSize=11;" parent="1" edge="1" target="_rXOLrQLvxj1EaKKoI4X-45" source="_rXOLrQLvxj1EaKKoI4X-3">
          <mxGeometry width="50" height="50" relative="1" as="geometry">
            <mxPoint x="260" y="192.5" as="sourcePoint" />
            <mxPoint x="234.99999999999926" y="185" as="targetPoint" />
            <Array as="points">
              <mxPoint x="250" y="187.5" />
            </Array>
          </mxGeometry>
        </mxCell>
        <mxCell id="_rXOLrQLvxj1EaKKoI4X-43" value="name" style="text;html=1;align=center;verticalAlign=middle;resizable=0;points=[];autosize=1;strokeColor=none;fillColor=none;fontSize=11;" parent="1" vertex="1">
          <mxGeometry x="180" y="190.5" width="50" height="30" as="geometry" />
        </mxCell>
        <mxCell id="_rXOLrQLvxj1EaKKoI4X-44" value="" style="ellipse;whiteSpace=wrap;html=1;aspect=fixed;fillColor=none;fontSize=11;" parent="1" vertex="1">
          <mxGeometry x="225" y="200.5" width="10" height="10" as="geometry" />
        </mxCell>
        <mxCell id="_rXOLrQLvxj1EaKKoI4X-45" value="" style="ellipse;whiteSpace=wrap;html=1;aspect=fixed;fillColor=light-dark(#FFFFFF,#FFFFFF);fontSize=11;" parent="1" vertex="1">
          <mxGeometry x="225" y="182.5" width="10" height="10" as="geometry" />
        </mxCell>
        <mxCell id="ANEjqbXVITIKJhGTVzRm-19" value="" style="endArrow=none;html=1;rounded=0;entryX=-0.002;entryY=0.867;entryDx=0;entryDy=0;exitX=1;exitY=0.5;exitDx=0;exitDy=0;fontSize=11;entryPerimeter=0;" parent="1" source="ANEjqbXVITIKJhGTVzRm-21" target="_rXOLrQLvxj1EaKKoI4X-3" edge="1">
          <mxGeometry width="50" height="50" relative="1" as="geometry">
            <mxPoint x="235" y="217.5" as="sourcePoint" />
            <mxPoint x="260" y="215.5" as="targetPoint" />
            <Array as="points">
              <mxPoint x="250" y="223" />
            </Array>
          </mxGeometry>
        </mxCell>
        <mxCell id="ANEjqbXVITIKJhGTVzRm-20" value="password" style="text;html=1;align=center;verticalAlign=middle;resizable=0;points=[];autosize=1;strokeColor=none;fillColor=none;fontSize=11;" parent="1" vertex="1">
          <mxGeometry x="160" y="207.5" width="70" height="30" as="geometry" />
        </mxCell>
        <mxCell id="ANEjqbXVITIKJhGTVzRm-21" value="" style="ellipse;whiteSpace=wrap;html=1;aspect=fixed;fillColor=none;fontSize=11;" parent="1" vertex="1">
          <mxGeometry x="225" y="218" width="10" height="10" as="geometry" />
        </mxCell>
        <mxCell id="ANEjqbXVITIKJhGTVzRm-28" value="&lt;font&gt;STORE&lt;/font&gt;" style="rounded=0;whiteSpace=wrap;html=1;fillColor=none;fontSize=11;" parent="1" vertex="1">
          <mxGeometry x="658" y="185" width="90" height="40" as="geometry" />
        </mxCell>
        <mxCell id="ANEjqbXVITIKJhGTVzRm-32" value="(0, n)" style="text;html=1;align=center;verticalAlign=middle;resizable=0;points=[];autosize=1;strokeColor=none;fillColor=none;" parent="1" vertex="1">
          <mxGeometry x="345" y="210" width="50" height="30" as="geometry" />
        </mxCell>
        <mxCell id="ANEjqbXVITIKJhGTVzRm-34" value="creates" style="shape=rhombus;perimeter=rhombusPerimeter;whiteSpace=wrap;html=1;align=center;fillColor=none;fontSize=11;" parent="1" vertex="1">
          <mxGeometry x="455" y="192" width="100" height="45" as="geometry" />
        </mxCell>
        <mxCell id="ANEjqbXVITIKJhGTVzRm-37" value="" style="endArrow=none;html=1;rounded=0;entryX=1;entryY=0.5;entryDx=0;entryDy=0;exitX=0;exitY=0.75;exitDx=0;exitDy=0;fontSize=11;" parent="1" source="ANEjqbXVITIKJhGTVzRm-28" target="ANEjqbXVITIKJhGTVzRm-34" edge="1">
          <mxGeometry width="50" height="50" relative="1" as="geometry">
            <mxPoint x="330" y="235.5" as="sourcePoint" />
            <mxPoint x="330" y="380.5" as="targetPoint" />
            <Array as="points" />
          </mxGeometry>
        </mxCell>
        <mxCell id="ANEjqbXVITIKJhGTVzRm-47" value="(0, n)" style="text;html=1;align=center;verticalAlign=middle;resizable=0;points=[];autosize=1;strokeColor=none;fillColor=none;" parent="1" vertex="1">
          <mxGeometry x="660" y="220" width="50" height="30" as="geometry" />
        </mxCell>
        <mxCell id="ANEjqbXVITIKJhGTVzRm-48" value="(1, 1)" style="text;html=1;align=center;verticalAlign=middle;resizable=0;points=[];autosize=1;strokeColor=none;fillColor=none;" parent="1" vertex="1">
          <mxGeometry x="615" y="190" width="50" height="30" as="geometry" />
        </mxCell>
        <mxCell id="ANEjqbXVITIKJhGTVzRm-55" value="" style="endArrow=none;html=1;rounded=0;exitX=1;exitY=0.5;exitDx=0;exitDy=0;fontSize=11;entryX=0;entryY=0.5;entryDx=0;entryDy=0;" parent="1" target="ANEjqbXVITIKJhGTVzRm-57" edge="1">
          <mxGeometry width="50" height="50" relative="1" as="geometry">
            <mxPoint x="748" y="214.5" as="sourcePoint" />
            <mxPoint x="738.08" y="309.5" as="targetPoint" />
            <Array as="points" />
          </mxGeometry>
        </mxCell>
        <mxCell id="ANEjqbXVITIKJhGTVzRm-57" value="" style="ellipse;whiteSpace=wrap;html=1;aspect=fixed;fillColor=none;fontSize=11;" parent="1" vertex="1">
          <mxGeometry x="773" y="209.5" width="10" height="10" as="geometry" />
        </mxCell>
        <mxCell id="ANEjqbXVITIKJhGTVzRm-61" value="name" style="text;html=1;align=left;verticalAlign=middle;resizable=0;points=[];autosize=1;strokeColor=none;fillColor=none;" parent="1" vertex="1">
          <mxGeometry x="783" y="198" width="50" height="30" as="geometry" />
        </mxCell>
        <mxCell id="ANEjqbXVITIKJhGTVzRm-72" value="" style="endArrow=none;html=1;rounded=0;fontSize=11;entryX=0;entryY=0.5;entryDx=0;entryDy=0;exitX=1;exitY=0.25;exitDx=0;exitDy=0;" parent="1" source="ANEjqbXVITIKJhGTVzRm-28" target="ANEjqbXVITIKJhGTVzRm-73" edge="1">
          <mxGeometry width="50" height="50" relative="1" as="geometry">
            <mxPoint x="748.0000000000002" y="204.5" as="sourcePoint" />
            <mxPoint x="753" y="309.5" as="targetPoint" />
            <Array as="points" />
          </mxGeometry>
        </mxCell>
        <mxCell id="ANEjqbXVITIKJhGTVzRm-73" value="" style="ellipse;whiteSpace=wrap;html=1;aspect=fixed;fillColor=light-dark(#FFFFFF,#FFFFFF);fontSize=11;direction=east;" parent="1" vertex="1">
          <mxGeometry x="773" y="190" width="10" height="10" as="geometry" />
        </mxCell>
        <mxCell id="ANEjqbXVITIKJhGTVzRm-75" value="id" style="text;html=1;align=left;verticalAlign=middle;resizable=0;points=[];autosize=1;strokeColor=none;fillColor=none;" parent="1" vertex="1">
          <mxGeometry x="783" y="179.5" width="30" height="30" as="geometry" />
        </mxCell>
        <mxCell id="ANEjqbXVITIKJhGTVzRm-77" value="places" style="shape=rhombus;perimeter=rhombusPerimeter;whiteSpace=wrap;html=1;align=center;fillColor=none;fontSize=11;" parent="1" vertex="1">
          <mxGeometry x="255" y="292.5" width="100" height="45" as="geometry" />
        </mxCell>
        <mxCell id="ANEjqbXVITIKJhGTVzRm-78" value="" style="endArrow=none;html=1;rounded=0;fontSize=11;exitX=0.5;exitY=1;exitDx=0;exitDy=0;entryX=0.5;entryY=0;entryDx=0;entryDy=0;" parent="1" source="ANEjqbXVITIKJhGTVzRm-28" target="4KIPaqX-MfsETcOZ9-r2-4" edge="1">
          <mxGeometry width="50" height="50" relative="1" as="geometry">
            <mxPoint x="642.19" y="266.02000000000004" as="sourcePoint" />
            <mxPoint x="703" y="275" as="targetPoint" />
            <Array as="points" />
          </mxGeometry>
        </mxCell>
        <mxCell id="ANEjqbXVITIKJhGTVzRm-79" value="(0,n)" style="text;html=1;align=center;verticalAlign=middle;resizable=0;points=[];autosize=1;strokeColor=none;fillColor=none;" parent="1" vertex="1">
          <mxGeometry x="296" y="220" width="50" height="30" as="geometry" />
        </mxCell>
        <mxCell id="Vg8crvU1tJOl-V_Ojh_K-5" value="" style="endArrow=none;html=1;rounded=0;entryX=1;entryY=0.5;entryDx=0;entryDy=0;exitX=0;exitY=0.5;exitDx=0;exitDy=0;fontSize=11;" parent="1" source="_rXOLrQLvxj1EaKKoI4X-3" target="_rXOLrQLvxj1EaKKoI4X-44" edge="1">
          <mxGeometry width="50" height="50" relative="1" as="geometry">
            <mxPoint x="270" y="199.8" as="sourcePoint" />
            <mxPoint x="240" y="199.8" as="targetPoint" />
            <Array as="points">
              <mxPoint x="250" y="205" />
            </Array>
          </mxGeometry>
        </mxCell>
        <mxCell id="Vg8crvU1tJOl-V_Ojh_K-6" value="(0, n)" style="text;html=1;align=center;verticalAlign=middle;resizable=0;points=[];autosize=1;strokeColor=none;fillColor=none;" parent="1" vertex="1">
          <mxGeometry x="345" y="190" width="50" height="30" as="geometry" />
        </mxCell>
        <mxCell id="Vg8crvU1tJOl-V_Ojh_K-8" value="" style="endArrow=none;html=1;rounded=0;fontSize=11;exitX=1;exitY=0.75;exitDx=0;exitDy=0;entryX=0;entryY=0.5;entryDx=0;entryDy=0;" parent="1" source="_rXOLrQLvxj1EaKKoI4X-3" target="ANEjqbXVITIKJhGTVzRm-34" edge="1">
          <mxGeometry width="50" height="50" relative="1" as="geometry">
            <mxPoint x="294" y="234" as="sourcePoint" />
            <mxPoint x="425" y="225" as="targetPoint" />
            <Array as="points" />
          </mxGeometry>
        </mxCell>
        <mxCell id="4KIPaqX-MfsETcOZ9-r2-4" value="sells" style="shape=rhombus;perimeter=rhombusPerimeter;whiteSpace=wrap;html=1;align=center;fillColor=none;fontSize=11;" vertex="1" parent="1">
          <mxGeometry x="654" y="279.5" width="100" height="45" as="geometry" />
        </mxCell>
        <mxCell id="4KIPaqX-MfsETcOZ9-r2-5" value="" style="endArrow=none;html=1;rounded=0;fontSize=11;exitX=0.5;exitY=1;exitDx=0;exitDy=0;" edge="1" parent="1" source="_rXOLrQLvxj1EaKKoI4X-3" target="ANEjqbXVITIKJhGTVzRm-77">
          <mxGeometry width="50" height="50" relative="1" as="geometry">
            <mxPoint x="360" y="225" as="sourcePoint" />
            <mxPoint x="440" y="226" as="targetPoint" />
            <Array as="points" />
          </mxGeometry>
        </mxCell>
        <mxCell id="4KIPaqX-MfsETcOZ9-r2-6" value="&lt;font&gt;PRODUCT&lt;/font&gt;" style="rounded=0;whiteSpace=wrap;html=1;fillColor=none;fontSize=11;" vertex="1" parent="1">
          <mxGeometry x="659" y="384.5" width="90" height="40" as="geometry" />
        </mxCell>
        <mxCell id="4KIPaqX-MfsETcOZ9-r2-7" value="" style="endArrow=none;html=1;rounded=0;fontSize=11;entryX=1;entryY=0.5;entryDx=0;entryDy=0;exitX=0;exitY=0.5;exitDx=0;exitDy=0;" edge="1" parent="1" source="4KIPaqX-MfsETcOZ9-r2-49" target="ANEjqbXVITIKJhGTVzRm-77">
          <mxGeometry width="50" height="50" relative="1" as="geometry">
            <mxPoint x="435" y="400" as="sourcePoint" />
            <mxPoint x="315" y="325" as="targetPoint" />
            <Array as="points" />
          </mxGeometry>
        </mxCell>
        <mxCell id="4KIPaqX-MfsETcOZ9-r2-10" value="(1, 1)" style="text;html=1;align=center;verticalAlign=middle;resizable=0;points=[];autosize=1;strokeColor=none;fillColor=none;" vertex="1" parent="1">
          <mxGeometry x="661" y="358.5" width="50" height="30" as="geometry" />
        </mxCell>
        <mxCell id="4KIPaqX-MfsETcOZ9-r2-12" value="" style="endArrow=none;html=1;rounded=0;exitX=0;exitY=0.5;exitDx=0;exitDy=0;fontSize=11;entryX=1;entryY=0;entryDx=0;entryDy=0;" edge="1" parent="1" target="4KIPaqX-MfsETcOZ9-r2-6" source="4KIPaqX-MfsETcOZ9-r2-13">
          <mxGeometry width="50" height="50" relative="1" as="geometry">
            <mxPoint x="720.22" y="434.84000000000003" as="sourcePoint" />
            <mxPoint x="720.5" y="467.5" as="targetPoint" />
            <Array as="points" />
          </mxGeometry>
        </mxCell>
        <mxCell id="4KIPaqX-MfsETcOZ9-r2-13" value="" style="ellipse;whiteSpace=wrap;html=1;aspect=fixed;fillColor=none;fontSize=11;" vertex="1" parent="1">
          <mxGeometry x="769" y="379.5" width="10" height="10" as="geometry" />
        </mxCell>
        <mxCell id="4KIPaqX-MfsETcOZ9-r2-14" value="name" style="text;html=1;align=left;verticalAlign=middle;resizable=0;points=[];autosize=1;strokeColor=none;fillColor=none;" vertex="1" parent="1">
          <mxGeometry x="779" y="369.5" width="50" height="30" as="geometry" />
        </mxCell>
        <mxCell id="4KIPaqX-MfsETcOZ9-r2-15" value="" style="endArrow=none;html=1;rounded=0;fontSize=11;entryX=0;entryY=0.5;entryDx=0;entryDy=0;exitX=0.927;exitY=-0.008;exitDx=0;exitDy=0;exitPerimeter=0;" edge="1" parent="1" target="4KIPaqX-MfsETcOZ9-r2-16" source="4KIPaqX-MfsETcOZ9-r2-6">
          <mxGeometry width="50" height="50" relative="1" as="geometry">
            <mxPoint x="679.5" y="454.5" as="sourcePoint" />
            <mxPoint x="684.5" y="569" as="targetPoint" />
            <Array as="points">
              <mxPoint x="759" y="364.5" />
            </Array>
          </mxGeometry>
        </mxCell>
        <mxCell id="4KIPaqX-MfsETcOZ9-r2-16" value="" style="ellipse;whiteSpace=wrap;html=1;aspect=fixed;fillColor=light-dark(#FFFFFF,#FFFFFF);fontSize=11;direction=east;" vertex="1" parent="1">
          <mxGeometry x="767.5" y="359.5" width="10" height="10" as="geometry" />
        </mxCell>
        <mxCell id="4KIPaqX-MfsETcOZ9-r2-17" value="id" style="text;html=1;align=left;verticalAlign=middle;resizable=0;points=[];autosize=1;strokeColor=none;fillColor=none;" vertex="1" parent="1">
          <mxGeometry x="777.5" y="349.5" width="30" height="30" as="geometry" />
        </mxCell>
        <mxCell id="4KIPaqX-MfsETcOZ9-r2-28" value="" style="endArrow=none;html=1;rounded=0;exitX=1;exitY=0.5;exitDx=0;exitDy=0;fontSize=11;entryX=0;entryY=0.5;entryDx=0;entryDy=0;" edge="1" parent="1" source="4KIPaqX-MfsETcOZ9-r2-6" target="4KIPaqX-MfsETcOZ9-r2-29">
          <mxGeometry width="50" height="50" relative="1" as="geometry">
            <mxPoint x="705.5" y="436" as="sourcePoint" />
            <mxPoint x="705.5" y="469" as="targetPoint" />
            <Array as="points" />
          </mxGeometry>
        </mxCell>
        <mxCell id="4KIPaqX-MfsETcOZ9-r2-29" value="" style="ellipse;whiteSpace=wrap;html=1;aspect=fixed;fillColor=none;fontSize=11;" vertex="1" parent="1">
          <mxGeometry x="769" y="399.5" width="10" height="10" as="geometry" />
        </mxCell>
        <mxCell id="4KIPaqX-MfsETcOZ9-r2-30" value="description" style="text;html=1;align=left;verticalAlign=middle;resizable=0;points=[];autosize=1;strokeColor=none;fillColor=none;" vertex="1" parent="1">
          <mxGeometry x="779" y="388.5" width="80" height="30" as="geometry" />
        </mxCell>
        <mxCell id="4KIPaqX-MfsETcOZ9-r2-31" value="" style="endArrow=none;html=1;rounded=0;fontSize=11;exitX=0.5;exitY=1;exitDx=0;exitDy=0;entryX=0.5;entryY=0;entryDx=0;entryDy=0;" edge="1" parent="1" source="4KIPaqX-MfsETcOZ9-r2-4" target="4KIPaqX-MfsETcOZ9-r2-6">
          <mxGeometry width="50" height="50" relative="1" as="geometry">
            <mxPoint x="703.76" y="344.5" as="sourcePoint" />
            <mxPoint x="703.76" y="414.5" as="targetPoint" />
            <Array as="points" />
          </mxGeometry>
        </mxCell>
        <mxCell id="4KIPaqX-MfsETcOZ9-r2-32" value="" style="endArrow=none;html=1;rounded=0;exitX=1;exitY=0.5;exitDx=0;exitDy=0;fontSize=11;entryX=0;entryY=0.5;entryDx=0;entryDy=0;" edge="1" parent="1" target="4KIPaqX-MfsETcOZ9-r2-33">
          <mxGeometry width="50" height="50" relative="1" as="geometry">
            <mxPoint x="749" y="424.5" as="sourcePoint" />
            <mxPoint x="705.5" y="489" as="targetPoint" />
            <Array as="points" />
          </mxGeometry>
        </mxCell>
        <mxCell id="4KIPaqX-MfsETcOZ9-r2-33" value="" style="ellipse;whiteSpace=wrap;html=1;aspect=fixed;fillColor=none;fontSize=11;" vertex="1" parent="1">
          <mxGeometry x="769" y="419.5" width="10" height="10" as="geometry" />
        </mxCell>
        <mxCell id="4KIPaqX-MfsETcOZ9-r2-34" value="stock" style="text;html=1;align=left;verticalAlign=middle;resizable=0;points=[];autosize=1;strokeColor=none;fillColor=none;" vertex="1" parent="1">
          <mxGeometry x="779" y="409.5" width="50" height="30" as="geometry" />
        </mxCell>
        <mxCell id="4KIPaqX-MfsETcOZ9-r2-35" value="" style="endArrow=none;html=1;rounded=0;exitX=0.927;exitY=1.004;exitDx=0;exitDy=0;fontSize=11;entryX=0;entryY=0.5;entryDx=0;entryDy=0;exitPerimeter=0;" edge="1" parent="1" target="4KIPaqX-MfsETcOZ9-r2-36" source="4KIPaqX-MfsETcOZ9-r2-6">
          <mxGeometry width="50" height="50" relative="1" as="geometry">
            <mxPoint x="749.75" y="444.5" as="sourcePoint" />
            <mxPoint x="706.25" y="509" as="targetPoint" />
            <Array as="points">
              <mxPoint x="759" y="444.5" />
            </Array>
          </mxGeometry>
        </mxCell>
        <mxCell id="4KIPaqX-MfsETcOZ9-r2-36" value="" style="ellipse;whiteSpace=wrap;html=1;aspect=fixed;fillColor=none;fontSize=11;" vertex="1" parent="1">
          <mxGeometry x="769" y="439.5" width="10" height="10" as="geometry" />
        </mxCell>
        <mxCell id="4KIPaqX-MfsETcOZ9-r2-37" value="current_price" style="text;html=1;align=left;verticalAlign=middle;resizable=0;points=[];autosize=1;strokeColor=none;fillColor=none;" vertex="1" parent="1">
          <mxGeometry x="779" y="429.5" width="90" height="30" as="geometry" />
        </mxCell>
        <mxCell id="4KIPaqX-MfsETcOZ9-r2-39" value="" style="endArrow=none;html=1;rounded=0;exitX=0.838;exitY=0.994;exitDx=0;exitDy=0;fontSize=11;entryX=0;entryY=0.5;entryDx=0;entryDy=0;exitPerimeter=0;" edge="1" parent="1" target="4KIPaqX-MfsETcOZ9-r2-40" source="4KIPaqX-MfsETcOZ9-r2-6">
          <mxGeometry width="50" height="50" relative="1" as="geometry">
            <mxPoint x="742" y="439.5" as="sourcePoint" />
            <mxPoint x="706.25" y="524" as="targetPoint" />
            <Array as="points">
              <mxPoint x="759" y="464.5" />
            </Array>
          </mxGeometry>
        </mxCell>
        <mxCell id="4KIPaqX-MfsETcOZ9-r2-40" value="" style="ellipse;whiteSpace=wrap;html=1;aspect=fixed;fillColor=none;fontSize=11;" vertex="1" parent="1">
          <mxGeometry x="769" y="459.5" width="10" height="10" as="geometry" />
        </mxCell>
        <mxCell id="4KIPaqX-MfsETcOZ9-r2-41" value="current_discount" style="text;html=1;align=left;verticalAlign=middle;resizable=0;points=[];autosize=1;strokeColor=none;fillColor=none;" vertex="1" parent="1">
          <mxGeometry x="779" y="449.5" width="110" height="30" as="geometry" />
        </mxCell>
        <mxCell id="4KIPaqX-MfsETcOZ9-r2-45" value="" style="endArrow=none;html=1;rounded=0;exitX=0.75;exitY=1;exitDx=0;exitDy=0;fontSize=11;entryX=0;entryY=0.5;entryDx=0;entryDy=0;" edge="1" parent="1" target="4KIPaqX-MfsETcOZ9-r2-46" source="4KIPaqX-MfsETcOZ9-r2-6">
          <mxGeometry width="50" height="50" relative="1" as="geometry">
            <mxPoint x="734" y="439.5" as="sourcePoint" />
            <mxPoint x="706.25" y="539" as="targetPoint" />
            <Array as="points">
              <mxPoint x="759" y="484.5" />
            </Array>
          </mxGeometry>
        </mxCell>
        <mxCell id="4KIPaqX-MfsETcOZ9-r2-46" value="" style="ellipse;whiteSpace=wrap;html=1;aspect=fixed;fillColor=none;fontSize=11;" vertex="1" parent="1">
          <mxGeometry x="769" y="479.5" width="10" height="10" as="geometry" />
        </mxCell>
        <mxCell id="4KIPaqX-MfsETcOZ9-r2-47" value="image" style="text;html=1;align=left;verticalAlign=middle;resizable=0;points=[];autosize=1;strokeColor=none;fillColor=none;" vertex="1" parent="1">
          <mxGeometry x="779" y="469.5" width="60" height="30" as="geometry" />
        </mxCell>
        <mxCell id="4KIPaqX-MfsETcOZ9-r2-48" value="(1,n)" style="text;html=1;align=center;verticalAlign=middle;resizable=0;points=[];autosize=1;strokeColor=none;fillColor=none;" vertex="1" parent="1">
          <mxGeometry x="707" y="450.5" width="50" height="30" as="geometry" />
        </mxCell>
        <mxCell id="4KIPaqX-MfsETcOZ9-r2-49" value="&lt;font&gt;ORDER&lt;/font&gt;" style="rounded=0;whiteSpace=wrap;html=1;fillColor=none;fontSize=11;" vertex="1" parent="1">
          <mxGeometry x="453" y="295" width="90" height="40" as="geometry" />
        </mxCell>
        <mxCell id="4KIPaqX-MfsETcOZ9-r2-50" value="includes" style="shape=rhombus;perimeter=rhombusPerimeter;whiteSpace=wrap;html=1;align=center;fillColor=none;fontSize=11;" vertex="1" parent="1">
          <mxGeometry x="443" y="382.5" width="100" height="45" as="geometry" />
        </mxCell>
        <mxCell id="4KIPaqX-MfsETcOZ9-r2-51" value="" style="endArrow=none;html=1;rounded=0;fontSize=11;exitX=0.5;exitY=1;exitDx=0;exitDy=0;" edge="1" parent="1" target="4KIPaqX-MfsETcOZ9-r2-50">
          <mxGeometry width="50" height="50" relative="1" as="geometry">
            <mxPoint x="493" y="335" as="sourcePoint" />
            <mxPoint x="628" y="336" as="targetPoint" />
            <Array as="points" />
          </mxGeometry>
        </mxCell>
        <mxCell id="4KIPaqX-MfsETcOZ9-r2-52" value="" style="endArrow=none;html=1;rounded=0;fontSize=11;entryX=1;entryY=0.5;entryDx=0;entryDy=0;exitX=0;exitY=0.5;exitDx=0;exitDy=0;" edge="1" parent="1" source="4KIPaqX-MfsETcOZ9-r2-6" target="4KIPaqX-MfsETcOZ9-r2-50">
          <mxGeometry width="50" height="50" relative="1" as="geometry">
            <mxPoint x="665" y="425" as="sourcePoint" />
            <mxPoint x="515" y="435" as="targetPoint" />
            <Array as="points" />
          </mxGeometry>
        </mxCell>
        <mxCell id="4KIPaqX-MfsETcOZ9-r2-54" value="(1,1)" style="text;html=1;align=center;verticalAlign=middle;resizable=0;points=[];autosize=1;strokeColor=none;fillColor=none;" vertex="1" parent="1">
          <mxGeometry x="405" y="289" width="50" height="30" as="geometry" />
        </mxCell>
        <mxCell id="4KIPaqX-MfsETcOZ9-r2-55" value="(1, n)" style="text;html=1;align=center;verticalAlign=middle;resizable=0;points=[];autosize=1;strokeColor=none;fillColor=none;" vertex="1" parent="1">
          <mxGeometry x="488" y="330.5" width="50" height="30" as="geometry" />
        </mxCell>
        <mxCell id="4KIPaqX-MfsETcOZ9-r2-56" value="(0,n)" style="text;html=1;align=center;verticalAlign=middle;resizable=0;points=[];autosize=1;strokeColor=none;fillColor=none;" vertex="1" parent="1">
          <mxGeometry x="611" y="377" width="50" height="30" as="geometry" />
        </mxCell>
        <mxCell id="4KIPaqX-MfsETcOZ9-r2-57" value="" style="endArrow=none;html=1;rounded=0;exitX=1;exitY=1;exitDx=0;exitDy=0;fontSize=11;entryX=0.5;entryY=0;entryDx=0;entryDy=0;" edge="1" parent="1" target="4KIPaqX-MfsETcOZ9-r2-58" source="4KIPaqX-MfsETcOZ9-r2-50">
          <mxGeometry width="50" height="50" relative="1" as="geometry">
            <mxPoint x="317" y="342" as="sourcePoint" />
            <mxPoint x="238" y="522" as="targetPoint" />
            <Array as="points" />
          </mxGeometry>
        </mxCell>
        <mxCell id="4KIPaqX-MfsETcOZ9-r2-58" value="" style="ellipse;whiteSpace=wrap;html=1;aspect=fixed;fillColor=none;fontSize=11;" vertex="1" parent="1">
          <mxGeometry x="513" y="440.5" width="10" height="10" as="geometry" />
        </mxCell>
        <mxCell id="4KIPaqX-MfsETcOZ9-r2-60" value="quantity" style="text;html=1;align=center;verticalAlign=middle;resizable=0;points=[];autosize=1;strokeColor=none;fillColor=none;" vertex="1" parent="1">
          <mxGeometry x="513" y="429.5" width="70" height="30" as="geometry" />
        </mxCell>
        <mxCell id="4KIPaqX-MfsETcOZ9-r2-61" value="total_price" style="text;html=1;align=center;verticalAlign=middle;resizable=0;points=[];autosize=1;strokeColor=none;fillColor=none;" vertex="1" parent="1">
          <mxGeometry x="555" y="279.5" width="80" height="30" as="geometry" />
        </mxCell>
        <mxCell id="4KIPaqX-MfsETcOZ9-r2-62" value="" style="endArrow=none;html=1;rounded=0;exitX=1;exitY=0;exitDx=0;exitDy=0;fontSize=11;entryX=0;entryY=0.5;entryDx=0;entryDy=0;" edge="1" parent="1" target="4KIPaqX-MfsETcOZ9-r2-63" source="4KIPaqX-MfsETcOZ9-r2-49">
          <mxGeometry width="50" height="50" relative="1" as="geometry">
            <mxPoint x="543" y="294.41999999999996" as="sourcePoint" />
            <mxPoint x="563" y="317.5" as="targetPoint" />
            <Array as="points" />
          </mxGeometry>
        </mxCell>
        <mxCell id="4KIPaqX-MfsETcOZ9-r2-63" value="" style="ellipse;whiteSpace=wrap;html=1;aspect=fixed;fillColor=none;fontSize=11;" vertex="1" parent="1">
          <mxGeometry x="555" y="289.5" width="10" height="10" as="geometry" />
        </mxCell>
        <mxCell id="4KIPaqX-MfsETcOZ9-r2-69" value="invoice_number" style="text;html=1;align=center;verticalAlign=middle;resizable=0;points=[];autosize=1;strokeColor=none;fillColor=none;" vertex="1" parent="1">
          <mxGeometry x="555" y="299.5" width="110" height="30" as="geometry" />
        </mxCell>
        <mxCell id="4KIPaqX-MfsETcOZ9-r2-70" value="" style="endArrow=none;html=1;rounded=0;exitX=1.001;exitY=0.679;exitDx=0;exitDy=0;fontSize=11;entryX=0;entryY=0.5;entryDx=0;entryDy=0;exitPerimeter=0;" edge="1" parent="1" target="4KIPaqX-MfsETcOZ9-r2-71">
          <mxGeometry width="50" height="50" relative="1" as="geometry">
            <mxPoint x="543.0899999999999" y="314.65999999999997" as="sourcePoint" />
            <mxPoint x="563" y="335.5" as="targetPoint" />
            <Array as="points" />
          </mxGeometry>
        </mxCell>
        <mxCell id="4KIPaqX-MfsETcOZ9-r2-71" value="" style="ellipse;whiteSpace=wrap;html=1;aspect=fixed;fillColor=none;fontSize=11;" vertex="1" parent="1">
          <mxGeometry x="555" y="309.5" width="10" height="10" as="geometry" />
        </mxCell>
        <mxCell id="4KIPaqX-MfsETcOZ9-r2-72" value="address" style="text;html=1;align=center;verticalAlign=middle;resizable=0;points=[];autosize=1;strokeColor=none;fillColor=none;" vertex="1" parent="1">
          <mxGeometry x="555" y="320.5" width="70" height="30" as="geometry" />
        </mxCell>
        <mxCell id="4KIPaqX-MfsETcOZ9-r2-73" value="" style="endArrow=none;html=1;rounded=0;exitX=1;exitY=1;exitDx=0;exitDy=0;fontSize=11;entryX=0;entryY=0.5;entryDx=0;entryDy=0;" edge="1" parent="1" target="4KIPaqX-MfsETcOZ9-r2-74" source="4KIPaqX-MfsETcOZ9-r2-49">
          <mxGeometry width="50" height="50" relative="1" as="geometry">
            <mxPoint x="543" y="336" as="sourcePoint" />
            <mxPoint x="563" y="357" as="targetPoint" />
            <Array as="points" />
          </mxGeometry>
        </mxCell>
        <mxCell id="4KIPaqX-MfsETcOZ9-r2-74" value="" style="ellipse;whiteSpace=wrap;html=1;aspect=fixed;fillColor=none;fontSize=11;" vertex="1" parent="1">
          <mxGeometry x="555" y="330.5" width="10" height="10" as="geometry" />
        </mxCell>
        <mxCell id="4KIPaqX-MfsETcOZ9-r2-77" value="" style="endArrow=none;html=1;rounded=0;entryX=0.134;entryY=1.004;entryDx=0;entryDy=0;fontSize=11;entryPerimeter=0;exitX=1;exitY=0.5;exitDx=0;exitDy=0;" edge="1" parent="1" source="4KIPaqX-MfsETcOZ9-r2-78" target="_rXOLrQLvxj1EaKKoI4X-3">
          <mxGeometry width="50" height="50" relative="1" as="geometry">
            <mxPoint x="220" y="250" as="sourcePoint" />
            <mxPoint x="270" y="237.5" as="targetPoint" />
            <Array as="points">
              <mxPoint x="250" y="255" />
            </Array>
          </mxGeometry>
        </mxCell>
        <mxCell id="4KIPaqX-MfsETcOZ9-r2-78" value="&lt;font style=&quot;font-size: 11px;&quot;&gt;address&lt;/font&gt;" style="ellipse;whiteSpace=wrap;html=1;fillColor=none;" vertex="1" parent="1">
          <mxGeometry x="160" y="240" width="60" height="30" as="geometry" />
        </mxCell>
        <mxCell id="4KIPaqX-MfsETcOZ9-r2-79" value="&lt;font style=&quot;font-size: 11px;&quot;&gt;(0, n)&lt;/font&gt;" style="text;html=1;align=center;verticalAlign=middle;resizable=0;points=[];autosize=1;strokeColor=none;fillColor=none;" vertex="1" parent="1">
          <mxGeometry x="245" y="235" width="50" height="30" as="geometry" />
        </mxCell>
        <mxCell id="4KIPaqX-MfsETcOZ9-r2-82" value="" style="ellipse;whiteSpace=wrap;html=1;aspect=fixed;fillColor=none;" vertex="1" parent="1">
          <mxGeometry x="127" y="267.5" width="10" height="10" as="geometry" />
        </mxCell>
        <mxCell id="4KIPaqX-MfsETcOZ9-r2-83" value="" style="endArrow=none;html=1;rounded=0;exitX=1;exitY=0.5;exitDx=0;exitDy=0;entryX=0.052;entryY=0.702;entryDx=0;entryDy=0;entryPerimeter=0;" edge="1" parent="1" source="4KIPaqX-MfsETcOZ9-r2-82" target="4KIPaqX-MfsETcOZ9-r2-78">
          <mxGeometry width="50" height="50" relative="1" as="geometry">
            <mxPoint x="136.99999999999932" y="274.5" as="sourcePoint" />
            <mxPoint x="161.92000000000002" y="262.64" as="targetPoint" />
            <Array as="points">
              <mxPoint x="150" y="272" />
            </Array>
          </mxGeometry>
        </mxCell>
        <mxCell id="4KIPaqX-MfsETcOZ9-r2-84" value="street" style="text;html=1;align=center;verticalAlign=middle;resizable=0;points=[];autosize=1;strokeColor=none;fillColor=none;" vertex="1" parent="1">
          <mxGeometry x="82.92" y="257.5" width="50" height="30" as="geometry" />
        </mxCell>
        <mxCell id="4KIPaqX-MfsETcOZ9-r2-85" value="" style="endArrow=none;html=1;rounded=0;exitX=1;exitY=0.5;exitDx=0;exitDy=0;entryX=0;entryY=1;entryDx=0;entryDy=0;" edge="1" parent="1" target="4KIPaqX-MfsETcOZ9-r2-78" source="4KIPaqX-MfsETcOZ9-r2-87">
          <mxGeometry width="50" height="50" relative="1" as="geometry">
            <mxPoint x="130" y="295.5" as="sourcePoint" />
            <mxPoint x="163.84000000000003" y="294.03499999999997" as="targetPoint" />
            <Array as="points">
              <mxPoint x="150" y="293" />
            </Array>
          </mxGeometry>
        </mxCell>
        <mxCell id="4KIPaqX-MfsETcOZ9-r2-86" value="number" style="text;html=1;align=center;verticalAlign=middle;resizable=0;points=[];autosize=1;strokeColor=none;fillColor=none;" vertex="1" parent="1">
          <mxGeometry x="72.92" y="278" width="60" height="30" as="geometry" />
        </mxCell>
        <mxCell id="4KIPaqX-MfsETcOZ9-r2-87" value="" style="ellipse;whiteSpace=wrap;html=1;aspect=fixed;fillColor=none;" vertex="1" parent="1">
          <mxGeometry x="127" y="288" width="10" height="10" as="geometry" />
        </mxCell>
        <mxCell id="4KIPaqX-MfsETcOZ9-r2-88" value="" style="endArrow=none;html=1;rounded=0;exitX=0.989;exitY=0.604;exitDx=0;exitDy=0;entryX=0;entryY=0.5;entryDx=0;entryDy=0;exitPerimeter=0;" edge="1" parent="1">
          <mxGeometry width="50" height="50" relative="1" as="geometry">
            <mxPoint x="136.89" y="253.53999999999996" as="sourcePoint" />
            <mxPoint x="160" y="254" as="targetPoint" />
          </mxGeometry>
        </mxCell>
        <mxCell id="4KIPaqX-MfsETcOZ9-r2-89" value="" style="ellipse;whiteSpace=wrap;html=1;aspect=fixed;fillColor=none;" vertex="1" parent="1">
          <mxGeometry x="127" y="248.5" width="10" height="10" as="geometry" />
        </mxCell>
        <mxCell id="4KIPaqX-MfsETcOZ9-r2-90" value="city" style="text;html=1;align=center;verticalAlign=middle;resizable=0;points=[];autosize=1;strokeColor=none;fillColor=none;" vertex="1" parent="1">
          <mxGeometry x="92.92" y="236" width="40" height="30" as="geometry" />
        </mxCell>
        <mxCell id="4KIPaqX-MfsETcOZ9-r2-92" value="" style="endArrow=none;html=1;rounded=0;exitX=1;exitY=0.5;exitDx=0;exitDy=0;entryX=0.258;entryY=0.954;entryDx=0;entryDy=0;entryPerimeter=0;" edge="1" parent="1" target="4KIPaqX-MfsETcOZ9-r2-78" source="4KIPaqX-MfsETcOZ9-r2-94">
          <mxGeometry width="50" height="50" relative="1" as="geometry">
            <mxPoint x="136.99999999999932" y="315.5" as="sourcePoint" />
            <mxPoint x="175.60000000000002" y="270.81" as="targetPoint" />
            <Array as="points">
              <mxPoint x="150" y="313" />
            </Array>
          </mxGeometry>
        </mxCell>
        <mxCell id="4KIPaqX-MfsETcOZ9-r2-93" value="unit" style="text;html=1;align=center;verticalAlign=middle;resizable=0;points=[];autosize=1;strokeColor=none;fillColor=none;" vertex="1" parent="1">
          <mxGeometry x="92.92" y="298" width="40" height="30" as="geometry" />
        </mxCell>
        <mxCell id="4KIPaqX-MfsETcOZ9-r2-94" value="" style="ellipse;whiteSpace=wrap;html=1;aspect=fixed;fillColor=none;" vertex="1" parent="1">
          <mxGeometry x="127" y="307.5" width="10" height="10" as="geometry" />
        </mxCell>
        <mxCell id="4KIPaqX-MfsETcOZ9-r2-95" value="&lt;font style=&quot;font-size: 11px;&quot;&gt;(0,1)&lt;/font&gt;" style="text;html=1;align=center;verticalAlign=middle;resizable=0;points=[];autosize=1;strokeColor=none;fillColor=none;" vertex="1" parent="1">
          <mxGeometry x="150" y="275.5" width="50" height="30" as="geometry" />
        </mxCell>
        <mxCell id="4KIPaqX-MfsETcOZ9-r2-96" value="" style="endArrow=none;html=1;rounded=0;exitX=1;exitY=0.5;exitDx=0;exitDy=0;entryX=0.065;entryY=0.248;entryDx=0;entryDy=0;entryPerimeter=0;" edge="1" parent="1" source="4KIPaqX-MfsETcOZ9-r2-97" target="4KIPaqX-MfsETcOZ9-r2-78">
          <mxGeometry width="50" height="50" relative="1" as="geometry">
            <mxPoint x="137.00000000000037" y="231.5" as="sourcePoint" />
            <mxPoint x="162.76" y="241.45999999999998" as="targetPoint" />
            <Array as="points">
              <mxPoint x="150" y="236" />
            </Array>
          </mxGeometry>
        </mxCell>
        <mxCell id="4KIPaqX-MfsETcOZ9-r2-97" value="" style="ellipse;whiteSpace=wrap;html=1;aspect=fixed;fillColor=none;" vertex="1" parent="1">
          <mxGeometry x="127" y="230.5" width="10" height="10" as="geometry" />
        </mxCell>
        <mxCell id="4KIPaqX-MfsETcOZ9-r2-98" value="country" style="text;html=1;align=center;verticalAlign=middle;resizable=0;points=[];autosize=1;strokeColor=none;fillColor=none;" vertex="1" parent="1">
          <mxGeometry x="72.92" y="200.5" width="60" height="30" as="geometry" />
        </mxCell>
        <mxCell id="4KIPaqX-MfsETcOZ9-r2-99" value="" style="endArrow=none;html=1;rounded=0;exitX=1;exitY=0.5;exitDx=0;exitDy=0;entryX=0.173;entryY=0.119;entryDx=0;entryDy=0;entryPerimeter=0;" edge="1" parent="1" source="4KIPaqX-MfsETcOZ9-r2-100" target="4KIPaqX-MfsETcOZ9-r2-78">
          <mxGeometry width="50" height="50" relative="1" as="geometry">
            <mxPoint x="136.89" y="214.54000000000002" as="sourcePoint" />
            <mxPoint x="168.78679656440357" y="241.39339828220176" as="targetPoint" />
            <Array as="points">
              <mxPoint x="150" y="217" />
            </Array>
          </mxGeometry>
        </mxCell>
        <mxCell id="4KIPaqX-MfsETcOZ9-r2-100" value="" style="ellipse;whiteSpace=wrap;html=1;aspect=fixed;fillColor=none;" vertex="1" parent="1">
          <mxGeometry x="127" y="211.5" width="10" height="10" as="geometry" />
        </mxCell>
        <mxCell id="4KIPaqX-MfsETcOZ9-r2-101" value="province" style="text;html=1;align=center;verticalAlign=middle;resizable=0;points=[];autosize=1;strokeColor=none;fillColor=none;" vertex="1" parent="1">
          <mxGeometry x="62.92" y="218" width="70" height="30" as="geometry" />
        </mxCell>
        <mxCell id="4KIPaqX-MfsETcOZ9-r2-105" value="status" style="text;html=1;align=center;verticalAlign=middle;resizable=0;points=[];autosize=1;strokeColor=none;fillColor=none;" vertex="1" parent="1">
          <mxGeometry x="555" y="259.5" width="60" height="30" as="geometry" />
        </mxCell>
        <mxCell id="4KIPaqX-MfsETcOZ9-r2-106" value="" style="endArrow=none;html=1;rounded=0;exitX=0.855;exitY=0;exitDx=0;exitDy=0;fontSize=11;entryX=0;entryY=0.5;entryDx=0;entryDy=0;exitPerimeter=0;" edge="1" parent="1" target="4KIPaqX-MfsETcOZ9-r2-107" source="4KIPaqX-MfsETcOZ9-r2-49">
          <mxGeometry width="50" height="50" relative="1" as="geometry">
            <mxPoint x="529.77" y="289.8" as="sourcePoint" />
            <mxPoint x="555" y="273.5" as="targetPoint" />
            <Array as="points">
              <mxPoint x="540" y="275" />
            </Array>
          </mxGeometry>
        </mxCell>
        <mxCell id="4KIPaqX-MfsETcOZ9-r2-107" value="" style="ellipse;whiteSpace=wrap;html=1;aspect=fixed;fillColor=none;fontSize=11;" vertex="1" parent="1">
          <mxGeometry x="555" y="269.5" width="10" height="10" as="geometry" />
        </mxCell>
      </root>
    </mxGraphModel>
  </diagram>
</mxfile>
